<svg width="16" height="16" viewBox="0 0 16 16" fill="none" xmlns="http://www.w3.org/2000/svg">
<path d="M7.564 5.541C7.564 5.92833 7.501 6.276 7.375 6.584C7.25367 6.892 7.088 7.15567 6.878 7.375C6.668 7.58967 6.42533 7.75533 6.15 7.872C5.87467 7.984 5.58533 8.04 5.282 8.04C4.95533 8.04 4.652 7.984 4.372 7.872C4.09667 7.75533 3.85633 7.58967 3.651 7.375C3.45033 7.15567 3.29167 6.892 3.175 6.584C3.05833 6.276 3 5.92833 3 5.541C3 5.14433 3.05833 4.78967 3.175 4.477C3.29167 4.15967 3.45033 3.89367 3.651 3.679C3.85633 3.45967 4.09667 3.29167 4.372 3.175C4.652 3.05833 4.95533 3 5.282 3C5.60867 3 5.90967 3.05833 6.185 3.175C6.465 3.29167 6.70533 3.45967 6.906 3.679C7.11133 3.89367 7.27233 4.15967 7.389 4.477C7.50567 4.78967 7.564 5.14433 7.564 5.541ZM6.402 5.541C6.402 5.25633 6.37167 5.016 6.311 4.82C6.255 4.61933 6.17567 4.45833 6.073 4.337C5.975 4.211 5.856 4.12233 5.716 4.071C5.58067 4.015 5.436 3.987 5.282 3.987C5.12333 3.987 4.97633 4.015 4.841 4.071C4.70567 4.12233 4.589 4.211 4.491 4.337C4.393 4.45833 4.316 4.61933 4.26 4.82C4.204 5.016 4.176 5.25633 4.176 5.541C4.176 5.821 4.204 6.05667 4.26 6.248C4.316 6.43933 4.393 6.59567 4.491 6.717C4.589 6.83367 4.70567 6.91767 4.841 6.969C4.97633 7.02033 5.12333 7.046 5.282 7.046C5.436 7.046 5.58067 7.02033 5.716 6.969C5.856 6.91767 5.975 6.83367 6.073 6.717C6.17567 6.59567 6.255 6.43933 6.311 6.248C6.37167 6.05667 6.402 5.821 6.402 5.541ZM11.022 3.35C11.0733 3.28467 11.134 3.22867 11.204 3.182C11.2787 3.13067 11.3813 3.105 11.512 3.105H12.597L5.17 12.954C5.11867 13.0193 5.05567 13.0753 4.981 13.122C4.90633 13.164 4.81533 13.185 4.708 13.185H3.588L11.022 3.35ZM13.206 10.812C13.206 11.1993 13.143 11.547 13.017 11.855C12.891 12.163 12.723 12.4243 12.513 12.639C12.303 12.8537 12.0603 13.0193 11.785 13.136C11.5097 13.248 11.2203 13.304 10.917 13.304C10.5903 13.304 10.287 13.248 10.007 13.136C9.73167 13.0193 9.49133 12.8537 9.286 12.639C9.08533 12.4243 8.92667 12.163 8.81 11.855C8.698 11.547 8.642 11.1993 8.642 10.812C8.642 10.4153 8.698 10.0607 8.81 9.748C8.92667 9.43067 9.08533 9.16233 9.286 8.943C9.49133 8.72367 9.73167 8.558 10.007 8.446C10.287 8.32933 10.5903 8.271 10.917 8.271C11.2437 8.271 11.547 8.32933 11.827 8.446C12.107 8.558 12.3473 8.72367 12.548 8.943C12.7533 9.16233 12.9143 9.43067 13.031 9.748C13.1477 10.0607 13.206 10.4153 13.206 10.812ZM12.044 10.812C12.044 10.5273 12.0137 10.287 11.953 10.091C11.897 9.89033 11.8177 9.72933 11.715 9.608C11.6123 9.482 11.491 9.39333 11.351 9.342C11.2157 9.286 11.071 9.258 10.917 9.258C10.763 9.258 10.6183 9.286 10.483 9.342C10.3477 9.39333 10.2287 9.482 10.126 9.608C10.028 9.72933 9.951 9.89033 9.895 10.091C9.839 10.287 9.811 10.5273 9.811 10.812C9.811 11.092 9.839 11.3277 9.895 11.519C9.951 11.7103 10.028 11.8667 10.126 11.988C10.2287 12.1047 10.3477 12.1887 10.483 12.24C10.6183 12.2913 10.763 12.317 10.917 12.317C11.071 12.317 11.2157 12.2913 11.351 12.24C11.491 12.1887 11.6123 12.1047 11.715 11.988C11.8177 11.8667 11.897 11.7103 11.953 11.519C12.0137 11.3277 12.044 11.092 12.044 10.812Z" fill="#191713"/>
</svg>
