<svg width="16" height="16" viewBox="0 0 16 16" fill="none" xmlns="http://www.w3.org/2000/svg">
<path d="M9.46967 11.4697C9.17678 11.7626 9.17678 12.2374 9.46967 12.5303C9.76256 12.8232 10.2374 12.8232 10.5303 12.5303L9.46967 11.4697ZM14 8L14.5303 8.53033L15.0607 8L14.5303 7.46967L14 8ZM10.5303 3.46967C10.2374 3.17678 9.76256 3.17678 9.46967 3.46967C9.17678 3.76256 9.17678 4.23744 9.46967 4.53033L10.5303 3.46967ZM10.5303 12.5303L14.5303 8.53033L13.4697 7.46967L9.46967 11.4697L10.5303 12.5303ZM14.5303 7.46967L10.5303 3.46967L9.46967 4.53033L13.4697 8.53033L14.5303 7.46967Z" fill="#191713"/>
<path d="M14 8H2" stroke="#191713" stroke-width="1.5" stroke-linecap="round"/>
</svg>
