<svg width="16" height="16" viewBox="0 0 16 16" fill="none" xmlns="http://www.w3.org/2000/svg">
<path d="M10.5303 4.53033C10.8232 4.23744 10.8232 3.76256 10.5303 3.46967C10.2374 3.17678 9.76256 3.17678 9.46967 3.46967L10.5303 4.53033ZM6 8L5.46967 7.46967L4.93934 8L5.46967 8.53033L6 8ZM9.46967 12.5303C9.76256 12.8232 10.2374 12.8232 10.5303 12.5303C10.8232 12.2374 10.8232 11.7626 10.5303 11.4697L9.46967 12.5303ZM9.46967 3.46967L5.46967 7.46967L6.53033 8.53033L10.5303 4.53033L9.46967 3.46967ZM5.46967 8.53033L9.46967 12.5303L10.5303 11.4697L6.53033 7.46967L5.46967 8.53033Z" fill="#191713"/>
</svg>
