<svg width="16" height="16" viewBox="0 0 16 16" fill="none" xmlns="http://www.w3.org/2000/svg">
<path d="M11.4697 11.5303C11.7626 11.8232 12.2374 11.8232 12.5303 11.5303C12.8232 11.2374 12.8232 10.7626 12.5303 10.4697L11.4697 11.5303ZM8 7L8.53033 6.46967L8 5.93934L7.46967 6.46967L8 7ZM3.46967 10.4697C3.17678 10.7626 3.17678 11.2374 3.46967 11.5303C3.76256 11.8232 4.23744 11.8232 4.53033 11.5303L3.46967 10.4697ZM12.5303 10.4697L8.53033 6.46967L7.46967 7.53033L11.4697 11.5303L12.5303 10.4697ZM7.46967 6.46967L3.46967 10.4697L4.53033 11.5303L8.53033 7.53033L7.46967 6.46967Z" fill="#191713"/>
</svg>
