<svg width="24" height="24" viewBox="0 0 24 24" fill="none"
  xmlns="http://www.w3.org/2000/svg">
  <path d="M12.5303 16.4697C12.2374 16.1768 11.7626 16.1768 11.4697 16.4697C11.1768 16.7626 11.1768 17.2374 11.4697 17.5303L12.5303 16.4697ZM16 21L15.4697 21.5303L16 22.0607L16.5303 21.5303L16 21ZM20.5303 17.5303C20.8232 17.2374 20.8232 16.7626 20.5303 16.4697C20.2374 16.1768 19.7626 16.1768 19.4697 16.4697L20.5303 17.5303ZM11.4697 17.5303L15.4697 21.5303L16.5303 20.4697L12.5303 16.4697L11.4697 17.5303ZM16.5303 21.5303L20.5303 17.5303L19.4697 16.4697L15.4697 20.4697L16.5303 21.5303Z" fill="white"/>
  <path d="M16.75 11C16.75 10.5858 16.4142 10.25 16 10.25C15.5858 10.25 15.25 10.5858 15.25 11L16.75 11ZM15.25 21C15.25 21.4142 15.5858 21.75 16 21.75C16.4142 21.75 16.75 21.4142 16.75 21L15.25 21ZM15.25 11L15.25 21L16.75 21L16.75 11L15.25 11Z" fill="white"/>
  <path d="M4.53033 7.53033C4.23744 7.82322 3.76256 7.82322 3.46967 7.53033C3.17678 7.23744 3.17678 6.76256 3.46967 6.46967L4.53033 7.53033ZM8 3L7.46967 2.46967L8 1.93934L8.53033 2.46967L8 3ZM12.5303 6.46967C12.8232 6.76256 12.8232 7.23744 12.5303 7.53033C12.2374 7.82322 11.7626 7.82322 11.4697 7.53033L12.5303 6.46967ZM3.46967 6.46967L7.46967 2.46967L8.53033 3.53033L4.53033 7.53033L3.46967 6.46967ZM8.53033 2.46967L12.5303 6.46967L11.4697 7.53033L7.46967 3.53033L8.53033 2.46967Z" fill="white"/>
  <path d="M8.75 13C8.75 13.4142 8.41421 13.75 8 13.75C7.58579 13.75 7.25 13.4142 7.25 13L8.75 13ZM7.25 3C7.25 2.58579 7.58579 2.25 8 2.25C8.41421 2.25 8.75 2.58579 8.75 3L7.25 3ZM7.25 13L7.25 3L8.75 3L8.75 13L7.25 13Z" fill="white"/>
</svg>
