<svg width="17" height="17" viewBox="0 0 17 17" fill="none"
  xmlns="http://www.w3.org/2000/svg">
  <path d="M14.85 0.25H1.65C1.21258 0.250491 0.793068 0.424454 0.483843 0.733843C0.174466 1.04309 0.000502857 1.46261 0 1.9V15.1C0.000491071 15.5374 0.174454 15.9569 0.483843 16.2662C0.793094 16.5755 1.21261 16.7495 1.65 16.75H14.85C15.2874 16.7495 15.7069 16.5755 16.0162 16.2662C16.3255 15.9569 16.4995 15.5374 16.5 15.1V1.9C16.4995 1.46258 16.3255 1.04307 16.0162 0.733843C15.7069 0.424466 15.2874 0.250503 14.85 0.25ZM15.4 15.1C15.3999 15.2458 15.3418 15.3857 15.2388 15.4888C15.1357 15.5918 14.9958 15.6499 14.85 15.65H1.65C1.50416 15.6499 1.36432 15.5918 1.2612 15.4888C1.1582 15.3857 1.10013 15.2458 1.10001 15.1V1.9C1.10013 1.75415 1.1582 1.61432 1.2612 1.5112C1.36432 1.4082 1.50416 1.35013 1.65 1.35H14.85C14.9959 1.35013 15.1357 1.4082 15.2388 1.5112C15.3418 1.61432 15.3999 1.75416 15.4 1.9V15.1Z" fill="#191713"/>
  <path d="M6.59999 4.64999H5.49999V3.54999C5.49999 3.35344 5.39515 3.17188 5.22499 3.07366C5.05483 2.97545 4.84515 2.97545 4.67499 3.07366C4.50484 3.17188 4.39999 3.35345 4.39999 3.54999V4.64999H3.29999C3.10344 4.64999 2.92188 4.75483 2.82366 4.92499C2.72545 5.09515 2.72545 5.30484 2.82366 5.47499C2.92188 5.64515 3.10345 5.74999 3.29999 5.74999H4.39999V6.84999C4.39999 7.04654 4.50483 7.22811 4.67499 7.32632C4.84515 7.42454 5.05484 7.42454 5.22499 7.32632C5.39515 7.22811 5.49999 7.04654 5.49999 6.84999V5.74999H6.59999C6.79654 5.74999 6.97811 5.64515 7.07632 5.47499C7.17454 5.30483 7.17454 5.09515 7.07632 4.92499C6.97811 4.75484 6.79654 4.64999 6.59999 4.64999Z" fill="#191713"/>
  <path d="M13.2001 4.6499H9.90009C9.70354 4.6499 9.52197 4.75474 9.42376 4.9249C9.32554 5.09506 9.32554 5.30475 9.42376 5.4749C9.52197 5.64506 9.70355 5.7499 9.90009 5.7499H13.2001C13.3966 5.7499 13.5782 5.64506 13.6764 5.4749C13.7746 5.30474 13.7746 5.09506 13.6764 4.9249C13.5782 4.75475 13.3966 4.6499 13.2001 4.6499Z" fill="#191713"/>
  <path d="M13.2001 10.1499H9.90009C9.70354 10.1499 9.52197 10.2547 9.42376 10.4249C9.32554 10.5951 9.32554 10.8047 9.42376 10.9749C9.52197 11.1451 9.70355 11.2499 9.90009 11.2499H13.2001C13.3966 11.2499 13.5782 11.1451 13.6764 10.9749C13.7746 10.8047 13.7746 10.5951 13.6764 10.4249C13.5782 10.2547 13.3966 10.1499 13.2001 10.1499Z" fill="#191713"/>
  <path d="M13.2001 12.3501H9.90009C9.70354 12.3501 9.52197 12.4549 9.42376 12.6251C9.32554 12.7953 9.32554 13.0049 9.42376 13.1751C9.52197 13.3453 9.70355 13.4501 9.90009 13.4501H13.2001C13.3966 13.4501 13.5782 13.3453 13.6764 13.1751C13.7746 13.0049 13.7746 12.7953 13.6764 12.6251C13.5782 12.4549 13.3966 12.3501 13.2001 12.3501Z" fill="#191713"/>
  <path d="M6.50541 10.2446C6.40228 10.1415 6.26245 10.0835 6.1166 10.0835C5.97063 10.0835 5.8308 10.1415 5.72768 10.2446L4.94994 11.0223L4.17221 10.2446C4.03324 10.1056 3.8308 10.0514 3.64101 10.1023C3.45121 10.1531 3.30302 10.3013 3.2522 10.4911C3.20126 10.6809 3.25552 10.8833 3.39449 11.0223L4.17222 11.8L3.39449 12.5778C3.25552 12.7167 3.20126 12.9192 3.2522 13.109C3.30303 13.2988 3.45121 13.447 3.64101 13.4978C3.83081 13.5487 4.03324 13.4945 4.17221 13.3555L4.94994 12.5778L5.72768 13.3555C5.86665 13.4945 6.06908 13.5487 6.25888 13.4978C6.44868 13.447 6.59686 13.2988 6.64768 13.109C6.69863 12.9192 6.64437 12.7168 6.5054 12.5778L5.72767 11.8L6.5054 11.0223C6.60852 10.9192 6.66647 10.7794 6.66647 10.6335C6.66647 10.4875 6.60852 10.3477 6.5054 10.2446L6.50541 10.2446Z" fill="#191713"/>
</svg>
