<svg width="16" height="16" viewBox="0 0 16 16" fill="none" xmlns="http://www.w3.org/2000/svg">
<path d="M4.53033 7.46967C4.23744 7.17678 3.76256 7.17678 3.46967 7.46967C3.17678 7.76256 3.17678 8.23744 3.46967 8.53033L4.53033 7.46967ZM7 11L6.46967 11.5303L7 12.0607L7.53033 11.5303L7 11ZM13.5303 5.53033C13.8232 5.23744 13.8232 4.76256 13.5303 4.46967C13.2374 4.17678 12.7626 4.17678 12.4697 4.46967L13.5303 5.53033ZM3.46967 8.53033L6.46967 11.5303L7.53033 10.4697L4.53033 7.46967L3.46967 8.53033ZM7.53033 11.5303L13.5303 5.53033L12.4697 4.46967L6.46967 10.4697L7.53033 11.5303Z" fill="#191713"/>
</svg>
