<svg width="16" height="16" viewBox="0 0 16 16" fill="none" xmlns="http://www.w3.org/2000/svg">
<path d="M2.53033 7.46967C2.23744 7.17678 1.76256 7.17678 1.46967 7.46967C1.17678 7.76256 1.17678 8.23744 1.46967 8.53033L2.53033 7.46967ZM5 11L4.46967 11.5303L5 12.0607L5.53033 11.5303L5 11ZM11.5303 5.53033C11.8232 5.23744 11.8232 4.76256 11.5303 4.46967C11.2374 4.17678 10.7626 4.17678 10.4697 4.46967L11.5303 5.53033ZM1.46967 8.53033L4.46967 11.5303L5.53033 10.4697L2.53033 7.46967L1.46967 8.53033ZM5.53033 11.5303L11.5303 5.53033L10.4697 4.46967L4.46967 10.4697L5.53033 11.5303Z" fill="#191713"/>
<path d="M7.46967 10.4697C7.17678 10.7626 7.17678 11.2374 7.46967 11.5303C7.76256 11.8232 8.23744 11.8232 8.53033 11.5303L7.46967 10.4697ZM14.5303 5.53033C14.8232 5.23744 14.8232 4.76256 14.5303 4.46967C14.2374 4.17678 13.7626 4.17678 13.4697 4.46967L14.5303 5.53033ZM8.53033 11.5303L14.5303 5.53033L13.4697 4.46967L7.46967 10.4697L8.53033 11.5303Z" fill="#191713"/>
</svg>
