<svg width="24" height="24" viewBox="0 0 24 24" fill="none" xmlns="http://www.w3.org/2000/svg">
<path d="M6.53552 9.69971C6.12131 9.69971 5.78552 9.36392 5.78552 8.94971C5.78552 8.53549 6.12131 8.19971 6.53552 8.19971V9.69971ZM16.435 8.94971L16.435 8.19971H17.185L17.185 8.94971H16.435ZM17.185 18.8492C17.185 19.2634 16.8492 19.5992 16.435 19.5992C16.0208 19.5992 15.685 19.2634 15.685 18.8492L17.185 18.8492ZM6.53552 8.19971L16.435 8.19971V9.69971L6.53552 9.69971V8.19971ZM17.185 8.94971L17.185 18.8492L15.685 18.8492L15.685 8.94971H17.185Z" fill="#191713"/>
<path d="M6.9047 17.4194C6.6118 17.7123 6.6118 18.1871 6.9047 18.48C7.19759 18.7729 7.67246 18.7729 7.96536 18.48L6.9047 17.4194ZM16.9654 9.48004C17.2583 9.18714 17.2583 8.71227 16.9654 8.41938C16.6725 8.12648 16.1976 8.12648 15.9047 8.41938L16.9654 9.48004ZM7.96536 18.48L16.9654 9.48004L15.9047 8.41938L6.9047 17.4194L7.96536 18.48Z" fill="#191713"/>
</svg>
