<svg width="24" height="24" viewBox="0 0 24 24" fill="none" xmlns="http://www.w3.org/2000/svg">
<g clip-path="url(#clip0_1458_21)">
<path d="M12 8C11.2089 8 10.4355 8.2346 9.77772 8.67412C9.11993 9.11365 8.60723 9.73836 8.30448 10.4693C8.00173 11.2002 7.92252 12.0044 8.07686 12.7804C8.2312 13.5563 8.61217 14.269 9.17158 14.8284C9.73099 15.3878 10.4437 15.7688 11.2196 15.9231C11.9956 16.0775 12.7998 15.9983 13.5307 15.6955C14.2616 15.3928 14.8864 14.8801 15.3259 14.2223C15.7654 13.5645 16 12.7911 16 12C16 10.9391 15.5786 9.92172 14.8284 9.17157C14.0783 8.42143 13.0609 8 12 8ZM12 14C11.6044 14 11.2178 13.8827 10.8889 13.6629C10.56 13.4432 10.3036 13.1308 10.1522 12.7654C10.0009 12.3999 9.96126 11.9978 10.0384 11.6098C10.1156 11.2219 10.3061 10.8655 10.5858 10.5858C10.8655 10.3061 11.2219 10.1156 11.6098 10.0384C11.9978 9.96126 12.3999 10.0009 12.7654 10.1522C13.1308 10.3036 13.4432 10.56 13.6629 10.8889C13.8827 11.2178 14 11.6044 14 12C14 12.5304 13.7893 13.0391 13.4142 13.4142C13.0391 13.7893 12.5304 14 12 14Z" fill="#191713"/>
<path d="M21.294 13.9L20.85 13.644C21.0499 12.5564 21.0499 11.4416 20.85 10.354L21.294 10.098C21.6354 9.90102 21.9347 9.63871 22.1748 9.32606C22.4148 9.01341 22.591 8.65654 22.6931 8.27582C22.7953 7.8951 22.8214 7.49799 22.7701 7.10716C22.7188 6.71633 22.591 6.33944 22.394 5.998C22.197 5.65656 21.9347 5.35727 21.622 5.1172C21.3094 4.87714 20.9525 4.70101 20.5718 4.59886C20.1911 4.49672 19.794 4.47056 19.4031 4.52189C19.0123 4.57321 18.6354 4.70102 18.294 4.898L17.849 5.155C17.0085 4.43692 16.0427 3.88025 15 3.513V3C15 2.20435 14.6839 1.44129 14.1213 0.87868C13.5587 0.31607 12.7956 0 12 0C11.2043 0 10.4413 0.31607 9.87866 0.87868C9.31605 1.44129 8.99998 2.20435 8.99998 3V3.513C7.95737 3.88157 6.99183 4.4396 6.15198 5.159L5.70498 4.9C5.01542 4.50218 4.19606 4.39457 3.42716 4.60086C2.65827 4.80715 2.00281 5.31044 1.60498 6C1.20716 6.68956 1.09955 7.50892 1.30584 8.27782C1.51213 9.04672 2.01542 9.70218 2.70498 10.1L3.14898 10.356C2.94909 11.4436 2.94909 12.5584 3.14898 13.646L2.70498 13.902C2.01542 14.2998 1.51213 14.9553 1.30584 15.7242C1.09955 16.4931 1.20716 17.3124 1.60498 18.002C2.00281 18.6916 2.65827 19.1948 3.42716 19.4011C4.19606 19.6074 5.01542 19.4998 5.70498 19.102L6.14998 18.845C6.99075 19.5632 7.95696 20.1199 8.99998 20.487V21C8.99998 21.7956 9.31605 22.5587 9.87866 23.1213C10.4413 23.6839 11.2043 24 12 24C12.7956 24 13.5587 23.6839 14.1213 23.1213C14.6839 22.5587 15 21.7956 15 21V20.487C16.0426 20.1184 17.0081 19.5604 17.848 18.841L18.295 19.099C18.9845 19.4968 19.8039 19.6044 20.5728 19.3981C21.3417 19.1918 21.9972 18.6886 22.395 17.999C22.7928 17.3094 22.9004 16.4901 22.6941 15.7212C22.4878 14.9523 21.9845 14.2968 21.295 13.899L21.294 13.9ZM18.746 10.124C19.0846 11.3511 19.0846 12.6469 18.746 13.874C18.6869 14.0876 18.7003 14.3147 18.7843 14.5198C18.8683 14.7249 19.018 14.8963 19.21 15.007L20.294 15.633C20.5238 15.7656 20.6915 15.9841 20.7602 16.2403C20.829 16.4966 20.7931 16.7697 20.6605 16.9995C20.5279 17.2293 20.3094 17.397 20.0531 17.4658C19.7969 17.5345 19.5238 17.4986 19.294 17.366L18.208 16.738C18.0159 16.6267 17.7922 16.5826 17.5722 16.6124C17.3522 16.6423 17.1485 16.7445 16.993 16.903C16.1029 17.8117 14.9816 18.46 13.75 18.778C13.535 18.8333 13.3445 18.9585 13.2086 19.1339C13.0726 19.3094 12.9989 19.525 12.999 19.747V21C12.999 21.2652 12.8936 21.5196 12.7061 21.7071C12.5186 21.8946 12.2642 22 11.999 22C11.7338 22 11.4794 21.8946 11.2919 21.7071C11.1043 21.5196 10.999 21.2652 10.999 21V19.748C10.9991 19.526 10.9254 19.3104 10.7894 19.1349C10.6534 18.9595 10.4629 18.8343 10.248 18.779C9.01633 18.4597 7.89531 17.81 7.00598 16.9C6.85051 16.7415 6.64672 16.6393 6.42674 16.6094C6.20676 16.5796 5.98309 16.6237 5.79098 16.735L4.70698 17.362C4.59321 17.4287 4.46737 17.4722 4.33671 17.4901C4.20604 17.508 4.07314 17.4998 3.94564 17.4661C3.81814 17.4324 3.69856 17.3738 3.5938 17.2937C3.48904 17.2136 3.40116 17.1135 3.33522 16.9993C3.26928 16.8851 3.22658 16.759 3.20958 16.6282C3.19258 16.4974 3.20162 16.3646 3.23617 16.2373C3.27073 16.11 3.33011 15.9909 3.41091 15.8866C3.49172 15.7824 3.59234 15.6952 3.70698 15.63L4.79098 15.004C4.98293 14.8933 5.13266 14.7219 5.21664 14.5168C5.30063 14.3117 5.31411 14.0846 5.25498 13.871C4.91634 12.6439 4.91634 11.3481 5.25498 10.121C5.31305 9.90788 5.29892 9.68153 5.2148 9.47729C5.13068 9.27305 4.9813 9.10241 4.78998 8.992L3.70598 8.366C3.47617 8.23339 3.30845 8.01492 3.23972 7.75865C3.17099 7.50239 3.20687 7.22931 3.33948 6.9995C3.47209 6.76969 3.69056 6.60197 3.94683 6.53324C4.2031 6.46451 4.47617 6.50039 4.70598 6.633L5.79198 7.261C5.98356 7.37251 6.20676 7.41721 6.42651 7.38807C6.64626 7.35893 6.85009 7.25759 7.00598 7.1C7.89607 6.19134 9.01741 5.54302 10.249 5.225C10.4646 5.16956 10.6556 5.04375 10.7916 4.8675C10.9277 4.69125 11.001 4.47464 11 4.252V3C11 2.73478 11.1053 2.48043 11.2929 2.29289C11.4804 2.10536 11.7348 2 12 2C12.2652 2 12.5196 2.10536 12.7071 2.29289C12.8946 2.48043 13 2.73478 13 3V4.252C12.9999 4.47396 13.0736 4.68964 13.2096 4.86508C13.3455 5.04052 13.536 5.16573 13.751 5.221C14.983 5.54015 16.1044 6.18988 16.994 7.1C17.1495 7.25847 17.3532 7.36069 17.5732 7.39057C17.7932 7.42044 18.0169 7.37626 18.209 7.265L19.293 6.638C19.4068 6.5713 19.5326 6.52777 19.6633 6.5099C19.7939 6.49204 19.9268 6.50019 20.0543 6.5339C20.1818 6.56761 20.3014 6.6262 20.4062 6.70631C20.5109 6.78642 20.5988 6.88646 20.6647 7.00067C20.7307 7.11488 20.7734 7.24101 20.7904 7.37179C20.8074 7.50257 20.7983 7.63542 20.7638 7.76269C20.7292 7.88997 20.6699 8.00915 20.5891 8.11337C20.5083 8.2176 20.4076 8.30482 20.293 8.37L19.209 8.996C19.018 9.10671 18.8691 9.27748 18.7853 9.48169C18.7016 9.68591 18.6877 9.9121 18.746 10.125V10.124Z" fill="#191713"/>
</g>
<defs>
<clipPath id="clip0_1458_21">
<rect width="24" height="24" fill="white"/>
</clipPath>
</defs>
</svg>
