<svg width="16" height="16" viewBox="0 0 16 16" fill="none" xmlns="http://www.w3.org/2000/svg">
<circle cx="8" cy="8" r="8" fill="#FFBE1D"/>
<path d="M4.51296 7.95285C4.21077 7.66955 3.73614 7.68486 3.45285 7.98704C3.16955 8.28923 3.18486 8.76386 3.48704 9.04715L4.51296 7.95285ZM6.66667 11L6.15371 11.5472L6.66667 12.028L7.17962 11.5472L6.66667 11ZM12.513 6.54715C12.8151 6.26386 12.8305 5.78923 12.5472 5.48704C12.2639 5.18486 11.7892 5.16955 11.487 5.45285L12.513 6.54715ZM3.48704 9.04715L6.15371 11.5472L7.17962 10.4528L4.51296 7.95285L3.48704 9.04715ZM7.17962 11.5472L12.513 6.54715L11.487 5.45285L6.15371 10.4528L7.17962 11.5472Z" fill="white"/>
</svg>
