<svg width="24" height="24" viewBox="0 0 24 24" fill="none" xmlns="http://www.w3.org/2000/svg">
<path d="M11.25 17.6567C11.25 18.071 11.5858 18.4067 12 18.4067C12.4142 18.4067 12.75 18.071 12.75 17.6567H11.25ZM12.75 6.34303C12.75 5.92882 12.4142 5.59303 12 5.59303C11.5858 5.59303 11.25 5.92882 11.25 6.34303H12.75ZM12.75 17.6567V6.34303H11.25V17.6567H12.75Z" fill="#191713"/>
<path d="M6.34314 11.25C5.92893 11.25 5.59314 11.5858 5.59314 12C5.59314 12.4142 5.92893 12.75 6.34314 12.75V11.25ZM17.6568 12.75C18.0711 12.75 18.4068 12.4142 18.4068 12C18.4068 11.5858 18.0711 11.25 17.6568 11.25V12.75ZM6.34314 12.75H17.6568V11.25H6.34314V12.75Z" fill="#191713"/>
</svg>
