<svg width="24" height="24" viewBox="0 0 24 24" fill="none" xmlns="http://www.w3.org/2000/svg">
<path d="M3.53033 14.5303C3.23744 14.8232 2.76256 14.8232 2.46967 14.5303C2.17678 14.2374 2.17678 13.7626 2.46967 13.4697L3.53033 14.5303ZM5 12L4.46967 11.4697L5 10.9393L5.53033 11.4697L5 12ZM7.53033 13.4697C7.82322 13.7626 7.82322 14.2374 7.53033 14.5303C7.23744 14.8232 6.76256 14.8232 6.46967 14.5303L7.53033 13.4697ZM2.46967 13.4697L4.46967 11.4697L5.53033 12.5303L3.53033 14.5303L2.46967 13.4697ZM5.53033 11.4697L7.53033 13.4697L6.46967 14.5303L4.46967 12.5303L5.53033 11.4697Z" fill="#191713"/>
<path d="M12 19.25C11.0479 19.25 10.1052 19.0625 9.22555 18.6981C8.34593 18.3338 7.5467 17.7997 6.87348 17.1265C6.20025 16.4533 5.66622 15.6541 5.30187 14.7745C4.93753 13.8948 4.75 12.9521 4.75 12" stroke="#191713" stroke-width="1.5"/>
<path d="M19.4697 9.46967C19.7626 9.17678 20.2374 9.17678 20.5303 9.46967C20.8232 9.76256 20.8232 10.2374 20.5303 10.5303L19.4697 9.46967ZM18 12L18.5303 12.5303L18 13.0607L17.4697 12.5303L18 12ZM15.4697 10.5303C15.1768 10.2374 15.1768 9.76256 15.4697 9.46967C15.7626 9.17678 16.2374 9.17678 16.5303 9.46967L15.4697 10.5303ZM20.5303 10.5303L18.5303 12.5303L17.4697 11.4697L19.4697 9.46967L20.5303 10.5303ZM17.4697 12.5303L15.4697 10.5303L16.5303 9.46967L18.5303 11.4697L17.4697 12.5303Z" fill="#191713"/>
<path d="M11 4.75C11.9521 4.75 12.8948 4.93753 13.7745 5.30187C14.6541 5.66622 15.4533 6.20025 16.1265 6.87348C16.7997 7.5467 17.3338 8.34593 17.6981 9.22555C18.0625 10.1052 18.25 11.0479 18.25 12" stroke="#191713" stroke-width="1.5"/>
</svg>
