<svg width="48" height="48" viewBox="0 0 48 48" fill="none" xmlns="http://www.w3.org/2000/svg">
<rect x="0.800003" width="47.2" height="47.2" rx="6.29333" fill="#FFBE1D"/>
<path d="M38.56 23.4861C38.56 21.7689 37.1664 20.3753 35.4493 20.3753C34.6032 20.3753 33.8566 20.6989 33.3091 21.2463C31.1938 19.7283 28.2573 18.7329 25.0222 18.6084L26.4406 11.9639L31.0445 12.9345C31.0943 14.1041 32.0648 15.0498 33.2593 15.0498C34.4787 15.0498 35.4742 14.0544 35.4742 12.835C35.4742 11.6156 34.4787 10.6201 33.2593 10.6201C32.3883 10.6201 31.6418 11.1178 31.2934 11.8644L26.142 10.7694C25.9927 10.7445 25.8434 10.7694 25.719 10.8441C25.5945 10.9187 25.5199 11.0432 25.4701 11.1925L23.9023 18.6084C20.5925 18.708 17.6311 19.6785 15.4909 21.2463C14.9434 20.7237 14.172 20.3753 13.3507 20.3753C11.6336 20.3753 10.24 21.7689 10.24 23.4861C10.24 24.7552 10.9866 25.8253 12.0816 26.323C12.0318 26.6217 12.0069 26.9452 12.0069 27.2687C12.0069 32.0468 17.5564 35.9041 24.4249 35.9041C31.2934 35.9041 36.8429 32.0468 36.8429 27.2687C36.8429 26.9452 36.818 26.6466 36.7682 26.3479C37.7885 25.8502 38.56 24.7552 38.56 23.4861ZM17.2827 25.7009C17.2827 24.4815 18.2781 23.4861 19.4975 23.4861C20.7169 23.4861 21.7123 24.4815 21.7123 25.7009C21.7123 26.9203 20.7169 27.9157 19.4975 27.9157C18.2781 27.9157 17.2827 26.9203 17.2827 25.7009ZM29.6509 31.549C28.1329 33.0671 25.2461 33.1666 24.4 33.1666C23.5539 33.1666 20.6423 33.0422 19.1491 31.549C18.9251 31.3251 18.9251 30.9518 19.1491 30.7278C19.3731 30.5038 19.7464 30.5038 19.9703 30.7278C20.916 31.6735 22.9566 32.0219 24.4249 32.0219C25.8932 32.0219 27.9089 31.6735 28.8794 30.7278C29.1034 30.5038 29.4767 30.5038 29.7007 30.7278C29.8749 30.9767 29.8749 31.3251 29.6509 31.549ZM29.2527 27.9157C28.0333 27.9157 27.0379 26.9203 27.0379 25.7009C27.0379 24.4815 28.0333 23.4861 29.2527 23.4861C30.4721 23.4861 31.4676 24.4815 31.4676 25.7009C31.4676 26.9203 30.4721 27.9157 29.2527 27.9157Z" fill="#191713"/>
</svg>
