<svg width="48" height="48" viewBox="0 0 48 48" fill="none" xmlns="http://www.w3.org/2000/svg">
<rect width="47.2" height="47.2" rx="6.29333" fill="#FFBE1D"/>
<g clip-path="url(#clip0_8_3582)">
<path d="M18.3492 35.1051C29.0333 35.1051 34.8788 26.2512 34.8788 18.5755C34.8788 18.3266 34.8732 18.0722 34.8622 17.8232C35.9993 17.0009 36.9806 15.9823 37.76 14.8154C36.701 15.2865 35.5766 15.5943 34.4252 15.728C35.6375 15.0013 36.5452 13.8598 36.9801 12.5149C35.8396 13.1908 34.5924 13.6676 33.2919 13.9248C32.4156 12.9937 31.257 12.3773 29.9952 12.1707C28.7335 11.9641 27.4388 12.1789 26.3113 12.782C25.1839 13.385 24.2865 14.3427 23.7579 15.5069C23.2294 16.671 23.099 17.9769 23.387 19.2227C21.0777 19.1068 18.8186 18.5069 16.756 17.4619C14.6934 16.4168 12.8734 14.95 11.4141 13.1565C10.6724 14.4353 10.4454 15.9486 10.7793 17.3887C11.1132 18.8288 11.983 20.0878 13.2118 20.9097C12.2893 20.8804 11.387 20.632 10.5794 20.1851V20.257C10.5786 21.599 11.0426 22.8999 11.8924 23.9385C12.7423 24.9771 13.9256 25.6894 15.2412 25.9542C14.3866 26.188 13.4897 26.2221 12.6199 26.0537C12.9912 27.2079 13.7135 28.2173 14.686 28.9412C15.6586 29.665 16.8328 30.0672 18.045 30.0916C15.9871 31.708 13.4451 32.5848 10.8283 32.5806C10.3643 32.5799 9.90067 32.5515 9.44 32.4954C12.0984 34.2009 15.1908 35.1067 18.3492 35.1051Z" fill="#191713"/>
</g>
<defs>
<clipPath id="clip0_8_3582">
<rect width="28.32" height="28.32" fill="white" transform="translate(9.44 9.43994)"/>
</clipPath>
</defs>
</svg>
