<svg width="49" height="48" viewBox="0 0 49 48" fill="none" xmlns="http://www.w3.org/2000/svg">
<rect x="0.866669" width="47.2" height="47.2" rx="6.29333" fill="#FFBE1D"/>
<path fill-rule="evenodd" clip-rule="evenodd" d="M13.109 22.5797C19.4441 19.8197 23.6685 18 25.7822 17.1209C31.8171 14.6107 33.0711 14.1747 33.8885 14.1603C34.0682 14.1571 34.4702 14.2017 34.7306 14.413C34.9504 14.5914 35.0109 14.8323 35.0398 15.0015C35.0688 15.1706 35.1048 15.5559 35.0762 15.8569C34.7491 19.2931 33.3341 27.6319 32.6141 31.4805C32.3095 33.109 31.7097 33.655 31.129 33.7084C29.8671 33.8246 28.9088 32.8745 27.6865 32.0732C25.7739 30.8195 24.6934 30.039 22.8368 28.8156C20.6913 27.4017 22.0822 26.6246 23.3049 25.3546C23.6249 25.0223 29.1852 19.9648 29.2928 19.506C29.3062 19.4486 29.3187 19.2348 29.1917 19.1218C29.0646 19.0089 28.8771 19.0475 28.7417 19.0782C28.5499 19.1218 25.4945 21.1413 19.5754 25.1368C18.7081 25.7323 17.9226 26.0225 17.2188 26.0073C16.4428 25.9905 14.9503 25.5686 13.8407 25.2079C12.4798 24.7655 11.3982 24.5316 11.4924 23.7804C11.5414 23.389 12.0803 22.9888 13.109 22.5797Z" fill="#191713"/>
</svg>
