<svg width="49" height="48" viewBox="0 0 49 48" fill="none" xmlns="http://www.w3.org/2000/svg">
<rect x="0.933334" width="47.2" height="47.2" rx="6.29333" fill="#FFBE1D"/>
<path d="M34.3474 14.7693C32.5424 13.9411 30.6068 13.3309 28.583 12.9814C28.5461 12.9747 28.5093 12.9916 28.4903 13.0253C28.2414 13.468 27.9656 14.0456 27.7725 14.4996C25.5958 14.1738 23.4303 14.1738 21.2982 14.4996C21.105 14.0355 20.8193 13.468 20.5692 13.0253C20.5502 12.9927 20.5134 12.9758 20.4766 12.9814C18.4539 13.3298 16.5183 13.94 14.7121 14.7693C14.6965 14.7761 14.6831 14.7873 14.6742 14.8019C11.0027 20.287 9.99698 25.6372 10.4904 30.9212C10.4926 30.947 10.5071 30.9717 10.5272 30.9875C12.9495 32.7663 15.296 33.8463 17.5988 34.5621C17.6357 34.5734 17.6747 34.5599 17.6982 34.5295C18.2429 33.7856 18.7285 33.0012 19.1448 32.1764C19.1694 32.1281 19.146 32.0708 19.0957 32.0517C18.3255 31.7595 17.5921 31.4032 16.8866 30.9987C16.8308 30.9661 16.8263 30.8863 16.8777 30.8481C17.0261 30.7368 17.1746 30.6211 17.3164 30.5042C17.3421 30.4829 17.3778 30.4784 17.4079 30.4919C22.0427 32.6079 27.0604 32.6079 31.6404 30.4919C31.6706 30.4773 31.7063 30.4818 31.7331 30.5031C31.8749 30.62 32.0233 30.7368 32.1729 30.8481C32.2243 30.8863 32.2209 30.9661 32.1651 30.9987C31.4596 31.4111 30.7262 31.7595 29.9549 32.0505C29.9046 32.0696 29.8823 32.1281 29.9069 32.1764C30.3322 33.0001 30.8177 33.7845 31.3524 34.5284C31.3748 34.5599 31.4149 34.5734 31.4518 34.5621C33.7658 33.8463 36.1122 32.7663 38.5345 30.9875C38.5558 30.9717 38.5692 30.9481 38.5714 30.9223C39.1619 24.8135 37.5824 19.5071 34.3842 14.8031C34.3764 14.7873 34.3631 14.7761 34.3474 14.7693ZM19.837 27.7038C18.4416 27.7038 17.2918 26.4227 17.2918 24.8495C17.2918 23.2762 18.4193 21.9951 19.837 21.9951C21.2658 21.9951 22.4044 23.2874 22.3821 24.8495C22.3821 26.4227 21.2546 27.7038 19.837 27.7038ZM29.2471 27.7038C27.8518 27.7038 26.7021 26.4227 26.7021 24.8495C26.7021 23.2762 27.8295 21.9951 29.2471 21.9951C30.676 21.9951 31.8146 23.2874 31.7923 24.8495C31.7923 26.4227 30.676 27.7038 29.2471 27.7038Z" fill="#191713"/>
</svg>
