<svg width="6" height="4" viewBox="0 0 6 4" fill="none" xmlns="http://www.w3.org/2000/svg">
<path d="M0.280169 4.00019H5.32031C5.37134 4.00001 5.42136 3.9839 5.46499 3.95359C5.50861 3.92328 5.54419 3.87993 5.56789 3.82819C5.5916 3.77645 5.60253 3.7183 5.59951 3.65998C5.59649 3.60166 5.57963 3.54539 5.55076 3.49722L3.03069 0.329786C2.92624 0.156998 2.6748 0.156998 2.57007 0.329786L0.0500021 3.49722C0.0208322 3.54528 0.00372631 3.60159 0.000542914 3.66C-0.00264049 3.71842 0.00822037 3.77672 0.0319455 3.82856C0.0556706 3.88041 0.0913525 3.92382 0.135114 3.95408C0.178876 3.98434 0.229045 4.00029 0.280169 4.00019Z" fill="#36332E"/>
</svg>
