<svg width="6" height="5" viewBox="0 0 6 5" fill="none" xmlns="http://www.w3.org/2000/svg">
<path d="M2.56944 4.06215C2.59513 4.10478 2.62951 4.13964 2.6696 4.16373C2.7097 4.18781 2.75432 4.20039 2.79962 4.20039C2.84492 4.20039 2.88954 4.18781 2.92964 4.16373C2.96974 4.13964 3.00411 4.10478 3.0298 4.06215L5.55 0.902436C5.57917 0.854458 5.59627 0.798261 5.59946 0.739953C5.60264 0.681645 5.59178 0.623455 5.56805 0.571705C5.54433 0.519955 5.50864 0.476625 5.46488 0.446422C5.42111 0.416219 5.37094 0.400299 5.31982 0.400391H0.279423C0.228415 0.400632 0.17843 0.416757 0.134842 0.447032C0.0912548 0.477307 0.0557144 0.520587 0.032043 0.572217C0.00837159 0.623847 -0.00253508 0.681874 0.000495862 0.740058C0.00352681 0.798241 0.0203807 0.85438 0.049245 0.902436L2.56944 4.06215Z" fill="#36332E"/>
</svg>
