<svg width="12" height="13" viewBox="0 0 12 13" fill="none" xmlns="http://www.w3.org/2000/svg">
<path d="M1.94932 6.83248C1.94932 6.04681 1.94932 5.65397 2.1934 5.40989C2.43747 5.16582 2.83031 5.16582 3.61598 5.16582H8.02846C8.81413 5.16582 9.20697 5.16582 9.45105 5.40989C9.69513 5.65397 9.69513 6.04681 9.69513 6.83248V8.47517C9.69513 9.65368 9.69513 10.2429 9.32901 10.6091C8.96289 10.9752 8.37364 10.9752 7.19513 10.9752H4.44932C3.27081 10.9752 2.68155 10.9752 2.31543 10.6091C1.94932 10.2429 1.94932 9.65368 1.94932 8.47517V6.83248Z" stroke="#71333A" stroke-width="1.6944"/>
<path d="M8.00074 5.16525L8.08969 4.45357C8.18628 3.68081 7.92063 2.90675 7.36989 2.35614V2.35614C6.48192 1.4684 5.07635 1.3686 4.07186 2.12197L3.88547 2.26177" stroke="#71333A" stroke-width="1.6944" stroke-linecap="round"/>
</svg>
