<svg width="15" height="9" viewBox="0 0 15 9" fill="none"
  xmlns="http://www.w3.org/2000/svg">
  <path d="M1.24827 0.939443C0.938686 0.664254 0.464632 0.69214 0.189443 1.00173C-0.0857455 1.31131 -0.05786 1.78537 0.251727 2.06056L1.24827 0.939443ZM7.5 7.5L7.00173 8.06056L7.5 8.50347L7.99827 8.06056L7.5 7.5ZM14.7483 2.06056C15.0579 1.78537 15.0857 1.31131 14.8106 1.00173C14.5354 0.69214 14.0613 0.664254 13.7517 0.939443L14.7483 2.06056ZM0.251727 2.06056L7.00173 8.06056L7.99827 6.93944L1.24827 0.939443L0.251727 2.06056ZM7.99827 8.06056L14.7483 2.06056L13.7517 0.939443L7.00173 6.93944L7.99827 8.06056Z" fill="#191713"/>
</svg>
