<svg width="12" height="8" viewBox="0 0 12 8" fill="none" xmlns="http://www.w3.org/2000/svg">
<path d="M2.36114 3.25708C2.03029 2.92623 1.49388 2.92623 1.16303 3.25708C0.832174 3.58794 0.832174 4.12435 1.16303 4.4552L2.36114 3.25708ZM4.62854 6.7226L4.02948 7.32166C4.36034 7.65251 4.89675 7.65251 5.2276 7.32166L4.62854 6.7226ZM10.9605 1.58874C11.2914 1.25789 11.2914 0.721477 10.9605 0.390626C10.6297 0.0597745 10.0933 0.0597745 9.7624 0.390626L10.9605 1.58874ZM1.16303 4.4552L4.02948 7.32166L5.2276 6.12354L2.36114 3.25708L1.16303 4.4552ZM5.2276 7.32166L10.9605 1.58874L9.7624 0.390626L4.02948 6.12354L5.2276 7.32166Z" fill="#234911"/>
</svg>
