<svg width="11" height="9" viewBox="0 0 11 9" fill="none"
  xmlns="http://www.w3.org/2000/svg">
  <path d="M10.45 0H0.549972C0.21997 0 0 0.220062 0 0.550066V8.25019C0 8.58019 0.21997 8.80016 0.549972 8.80016H10.45C10.78 8.80016 11 8.58019 11 8.25019V5.50009H7.15006C6.54502 5.50009 6.05002 5.00509 6.05002 4.40006C6.05002 3.79502 6.54502 3.30002 7.15006 3.30002H11V0.55016C11 0.220158 10.78 9.42345e-05 10.45 9.42345e-05V0Z" fill="black"/>
  <path d="M7.70004 4.40007C7.70004 4.70384 7.45384 4.95004 7.15007 4.95004C6.8463 4.95004 6.6001 4.70384 6.6001 4.40007C6.6001 4.0963 6.8463 3.8501 7.15007 3.8501C7.45384 3.8501 7.70004 4.0963 7.70004 4.40007Z" fill="black"/>
</svg>
