<svg width="16" height="16" viewBox="0 0 16 16" fill="none" xmlns="http://www.w3.org/2000/svg">
<path d="M8 0C5.8783 0 3.84345 0.842857 2.34315 2.34315C0.842857 3.84345 0 5.87827 0 8C0 10.1217 0.842857 12.1565 2.34315 13.6568C3.84345 15.1571 5.87827 16 8 16C10.1217 16 12.1565 15.1571 13.6568 13.6568C15.1571 12.1565 16 10.1217 16 8C16 5.87827 15.1571 3.84345 13.6568 2.34315C12.1565 0.842857 10.1217 0 8 0ZM8 12.5C7.73482 12.5 7.48045 12.3947 7.29292 12.2071C7.10539 12.0196 6.99995 11.7652 6.99995 11.5001C6.99995 11.2348 7.10539 10.9804 7.29292 10.7929C7.48044 10.6053 7.73482 10.5 8 10.5C8.26518 10.5 8.51955 10.6053 8.70708 10.7929C8.89461 10.9804 9.00005 11.2348 9.00005 11.5001C9.00005 11.7653 8.89461 12.0196 8.70708 12.2071C8.51956 12.3947 8.26518 12.5 8 12.5ZM9.00006 9L6.99997 9.00012V3.50012H9.00006V9Z" fill="#DB362C"/>
</svg>
