<svg width="1443" height="1024" viewBox="0 0 1443 1024" fill="none" xmlns="http://www.w3.org/2000/svg">
<path d="M939.999 888.331C731.7 1008.59 465.027 936.654 344.345 727.628C223.664 518.602 294.7 251.686 502.999 131.424C711.276 11.1756 977.972 83.1016 1098.65 292.128C1219.33 501.154 1148.28 768.082 939.999 888.331Z" stroke="#8F8F8F" stroke-opacity="0.2" stroke-width="2"/>
<path d="M985.5 967.139C733.674 1112.53 411.348 1025.68 265.537 773.128C119.726 520.575 205.674 198.007 457.5 52.6161C709.298 -92.7599 1031.65 -5.92449 1177.46 246.628C1323.27 499.18 1237.3 821.763 985.5 967.139Z" stroke="#8F8F8F" stroke-opacity="0.1" stroke-width="2"/>
<path d="M894 808.656C729.706 903.512 519.296 846.649 424.02 681.628C328.745 516.606 384.706 305.954 549 211.099C713.277 116.253 923.704 173.106 1018.98 338.128C1114.26 503.15 1058.28 713.811 894 808.656Z" stroke="#8F8F8F" stroke-opacity="0.4" stroke-width="2"/>
</svg>
