<svg width="1446" height="1024" viewBox="0 0 1446 1024" fill="none" xmlns="http://www.w3.org/2000/svg">
<path d="M939.999 935.355C731.7 1055.62 465.027 983.678 344.345 774.652C223.664 565.626 294.7 298.711 502.999 178.449C711.276 58.2003 977.972 130.126 1098.65 339.152C1219.33 548.178 1148.28 815.107 939.999 935.355Z" stroke="#FFBE1D" stroke-opacity="0.2" stroke-width="2"/>
<path d="M985.5 1014.16C733.674 1159.56 411.348 1072.7 265.537 820.152C119.726 567.6 205.674 245.032 457.5 99.6407C709.298 -45.7353 1031.65 41.1002 1177.46 293.652C1323.27 546.205 1237.3 868.788 985.5 1014.16Z" stroke="#FFBE1D" stroke-opacity="0.1" stroke-width="2"/>
<path d="M894 855.681C729.706 950.536 519.296 893.674 424.02 728.652C328.745 563.63 384.706 352.979 549 258.123C713.277 163.278 923.704 220.13 1018.98 385.152C1114.26 550.174 1058.28 760.836 894 855.681Z" stroke="#FFBE1D" stroke-opacity="0.4" stroke-width="2"/>
<circle cx="1011.6" cy="997.365" r="7.5" transform="rotate(60 1011.6 997.365)" fill="#D3D3D3" fill-opacity="0.5" stroke="#8F8F8F" stroke-width="2"/>
</svg>
