<?xml version="1.0" standalone="no"?>
<!DOCTYPE svg PUBLIC "-//W3C//DTD SVG 20010904//EN"
 "http://www.w3.org/TR/2001/REC-SVG-20010904/DTD/svg10.dtd">
<svg version="1.0" xmlns="http://www.w3.org/2000/svg"
 width="1020.000000pt" height="960.000000pt" viewBox="0 0 1020.000000 960.000000"
 preserveAspectRatio="xMidYMid meet">

<g transform="translate(0.000000,960.000000) scale(0.100000,-0.100000)"
fill="#000000" stroke="none">
<path d="M5032 9118 c-213 -355 -4663 -7911 -4660 -7913 2 -2 1063 610 2358
1360 l2355 1363 30 -18 c255 -150 4688 -2710 4690 -2708 3 5 -4710 7997 -4717
7998 -4 0 -29 -37 -56 -82z"/>
<path d="M3675 1702 c-770 -406 -1634 -861 -1920 -1011 -286 -150 -524 -277
-529 -281 -12 -11 -57 -26 2015 649 l1845 601 1934 -630 c1064 -346 1935 -628
1936 -627 1 1 -228 123 -509 272 -282 148 -1151 606 -1931 1017 -781 411
-1425 748 -1430 748 -6 0 -641 -332 -1411 -738z"/>
</g>
</svg>
