<svg width="174" height="173" viewBox="0 0 174 173" fill="none" xmlns="http://www.w3.org/2000/svg">
<path d="M157.886 23.4325C157.886 23.4325 162.033 28.3301 165.539 46.3861C167.986 58.9857 164.536 70.8368 160.459 76.5752C157.988 80.0519 152.303 86.3676 144.398 86.4304L144.336 84.0597L47.8499 78.571L65.9175 26.8008L157.886 23.4325Z" fill="#F8F4E6"/>
<path d="M157.886 23.4325C157.886 23.4325 162.033 28.3301 165.539 46.3861C167.986 58.9857 164.536 70.8368 160.459 76.5752C157.988 80.0519 152.303 86.3676 144.398 86.4304L144.336 84.0597L47.8499 78.571L65.9175 26.8008L157.886 23.4325Z" stroke="#191713" stroke-width="1.33333" stroke-miterlimit="10"/>
<path d="M65.8547 26.7538C65.8547 26.7538 75.7036 35.6576 75.2019 49.0057C74.7002 62.3538 70.936 68.0922 67.7994 71.5851C64.6628 75.0779 47.8503 78.5708 47.8503 78.5708" stroke="#191713" stroke-width="1.33333" stroke-miterlimit="10"/>
<path d="M158.472 35.9904L148.434 77.8229C148.434 77.8229 156.59 75.161 159.726 64.5994C161.748 57.7895 163.177 44.9097 158.472 35.9904Z" fill="#191713"/>
<path d="M147.608 82.846C147.453 83.3269 147.047 83.6274 146.701 83.5172C146.354 83.4071 146.198 82.9279 146.354 82.4464C146.509 81.9654 146.915 81.6644 147.261 81.7751C147.608 81.8853 147.763 82.365 147.608 82.846Z" fill="#FFBE1D"/>
<path d="M159.524 33.1924C159.446 33.7858 159.093 34.2292 158.734 34.1831C158.375 34.137 158.147 33.6185 158.224 33.0252C158.302 32.4318 158.655 31.9877 159.014 32.0339C159.372 32.08 159.601 32.599 159.524 33.1924Z" fill="#FFBE1D"/>
<path d="M65.9175 26.8006L47.7664 78.4048L144.336 84.0596L157.842 23.6295C157.864 23.5298 157.786 23.4363 157.683 23.4398L65.9175 26.8006Z" stroke="#191713" stroke-width="1.33333" stroke-miterlimit="10"/>
<path d="M73.4456 38.0279L155.001 36.1566" stroke="#191713" stroke-width="1.33333" stroke-miterlimit="10"/>
<path d="M7.67734 82.5315L47.2223 77.0739L144.336 84.0596L108.576 88.5507L7.67908 82.5764C7.65182 82.5753 7.65008 82.5349 7.67734 82.5315Z" fill="#F8F4E6"/>
<path d="M7.67734 82.5315L47.2223 77.0739L144.336 84.0596L108.576 88.5507L7.67908 82.5764C7.65182 82.5753 7.65008 82.5349 7.67734 82.5315Z" stroke="#191713" stroke-width="1.33333" stroke-miterlimit="10"/>
<path d="M101.194 75.3357C100.983 75.4061 97.3888 78.8384 97.3888 78.8384" stroke="#F8F4E6" stroke-width="1.33333" stroke-miterlimit="10" stroke-linecap="round"/>
<path d="M7.44685 82.942L7.19803 129.219C7.19803 129.219 108.827 145.186 108.827 144.438C108.827 143.69 108.577 88.5513 108.577 88.5513L7.82965 82.5856C7.62259 82.573 7.44801 82.7361 7.44685 82.942Z" fill="#F8F4E6"/>
<path d="M7.44685 82.942L7.19803 129.219C7.19803 129.219 108.827 145.186 108.827 144.438C108.827 143.69 108.577 88.5513 108.577 88.5513L7.82965 82.5856C7.62259 82.573 7.44801 82.7362 7.44685 82.942Z" stroke="#191713" stroke-width="1.33333" stroke-miterlimit="10"/>
<path d="M15.4787 88.9248V122.108L98.9158 134.708V94.6633L15.4787 88.9248Z" fill="#191713"/>
<path d="M15.4787 94.3724L98.9576 102.439" stroke="#F8F4E6" stroke-width="1.33333" stroke-miterlimit="10"/>
<path d="M15.5626 104.602L98.9573 113.75" stroke="#F8F4E6" stroke-width="1.33333" stroke-miterlimit="10"/>
<path d="M15.6461 114.831L98.9573 125.06" stroke="#F8F4E6" stroke-width="1.33333" stroke-miterlimit="10"/>
<path d="M105.001 138.502C105.001 139.312 104.514 139.968 103.913 139.968C103.313 139.968 102.826 139.312 102.826 138.502C102.826 137.693 103.313 137.036 103.913 137.036C104.514 137.036 105.001 137.693 105.001 138.502Z" fill="#FFBE1D"/>
<path d="M12.8857 125.185C12.8857 126.035 12.3429 126.724 11.673 126.724C11.0031 126.724 10.4602 126.035 10.4602 125.185C10.4602 124.335 11.0031 123.647 11.673 123.647C12.3429 123.647 12.8857 124.335 12.8857 125.185Z" fill="#FFBE1D"/>
<path d="M104.562 92.252C104.562 93.1014 104.131 93.7905 103.6 93.7905C103.069 93.7905 102.638 93.1014 102.638 92.252C102.638 91.402 103.069 90.7129 103.6 90.7129C104.131 90.7129 104.562 91.402 104.562 92.252Z" fill="#FFBE1D"/>
<path d="M12.3004 86.8461C12.3004 87.6955 11.8694 88.384 11.3381 88.384C10.8068 88.384 10.3765 87.6955 10.3765 86.8461C10.3765 85.9961 10.8068 85.3075 11.3381 85.3075C11.8694 85.3075 12.3004 85.9961 12.3004 86.8461Z" fill="#FFBE1D"/>
<path d="M108.577 88.5509L144.335 84.0598L144.085 129.219L108.934 144.392C108.884 144.414 108.828 144.377 108.828 144.323L108.577 88.5509Z" fill="#F8F4E6"/>
<path d="M108.577 88.5509L144.335 84.0598L144.085 129.219L108.934 144.392C108.884 144.414 108.828 144.377 108.828 144.323L108.577 88.5509Z" stroke="#191713" stroke-width="1.33333" stroke-miterlimit="10"/>
<path d="M113.847 94.9129C113.847 94.9129 113.533 135.331 113.909 134.957C114.286 134.583 138.25 125.726 138.25 125.726L138.188 90.1727L113.847 94.9129Z" fill="#191713"/>
<path d="M113.627 103.708L138.407 98.0632" stroke="#F8F4E6" stroke-width="1.33333" stroke-miterlimit="10" stroke-linecap="round"/>
<path d="M113.596 114.343L138.439 107.294" stroke="#F8F4E6" stroke-width="1.33333" stroke-miterlimit="10" stroke-linecap="round"/>
<path d="M113.314 125.663L138.376 116.807" stroke="#F8F4E6" stroke-width="1.33333" stroke-miterlimit="10" stroke-linecap="round"/>
<path d="M112.571 137.523C112.679 138.266 112.391 139.091 111.93 139.366C111.468 139.641 111.006 139.262 110.898 138.52C110.791 137.776 111.077 136.951 111.54 136.676C112.001 136.401 112.463 136.78 112.571 137.523Z" fill="#FFBE1D"/>
<path d="M141.821 125.826C141.921 126.515 141.655 127.28 141.226 127.536C140.798 127.791 140.37 127.439 140.269 126.75C140.17 126.061 140.435 125.295 140.864 125.041C141.292 124.785 141.72 125.137 141.821 125.826Z" fill="#FFBE1D"/>
<path d="M113.073 91.2828C113.181 92.0256 112.893 92.8514 112.432 93.1258C111.97 93.4015 111.508 93.022 111.4 92.2793C111.293 91.536 111.579 90.7113 112.042 90.4357C112.503 90.1612 112.964 90.5401 113.073 91.2828Z" fill="#FFBE1D"/>
<path d="M142.155 87.3205C142.255 88.0096 141.989 88.7749 141.561 89.0303C141.132 89.2852 140.704 88.934 140.604 88.2449C140.504 87.5552 140.77 86.79 141.199 86.5351C141.627 86.2796 142.055 86.6314 142.155 87.3205Z" fill="#FFBE1D"/>
<path d="M69.9325 31.2916L156.631 28.4221L157.761 23.495L65.9803 26.7382L69.9325 31.2916Z" fill="#191713"/>
</svg>
