<svg width="173" height="192" viewBox="0 0 173 192" fill="none" xmlns="http://www.w3.org/2000/svg">
<circle cx="86.5" cy="86.5" r="86.5" fill="#FFBE1D"/>
<g clip-path="url(#clip0_3665_17796)">
<path d="M106.685 108.414C106.685 108.414 91.2789 103.851 79.999 122.677" stroke="#191713" stroke-width="3" stroke-miterlimit="10"/>
<path d="M89.5 82.5C83.4704 58.6128 78.2364 32.2277 78.2364 32.2277C77.6933 30.1509 76.9221 28.1406 75.937 26.2335C75.3074 25.1908 74.3435 24.3921 73.2022 23.9674C72.061 23.5427 70.8096 23.5171 69.652 23.8946C66.9565 24.7382 64.4271 27.3455 65.6152 30.9497" stroke="#191713" stroke-width="3" stroke-miterlimit="10"/>
<path d="M77 84.5C71.162 56.5868 65.6149 30.9369 65.6149 30.9369C64.8859 30.2748 64.0162 29.7869 63.0713 29.5102C62.1263 29.2334 61.131 29.175 60.1602 29.3393C57.8097 29.9144 56.1362 31.8954 56.4811 35.3079C56.826 38.7204 58.6272 54.7858 58.6272 54.7858" stroke="#191713" stroke-width="3" stroke-miterlimit="10"/>
<path d="M41 160L61.8209 131.023C61.8209 131.023 55.7402 112.095 54.2967 100.349C52.8532 88.6036 49.8895 59.374 51.7418 56.3705C53.5941 53.3671 54.9099 54.0445 55.4081 54.0189C56.4834 54.1962 57.546 54.4439 58.5889 54.7602C58.5889 54.7602 62.6512 77.9445 64.9762 90.0479" stroke="#191713" stroke-width="3" stroke-miterlimit="10"/>
<path d="M95.2021 83.1543C88.8519 82.2316 82.3743 82.7826 76.2703 84.7646C70.1662 86.7466 64.5993 90.1066 60.0001 94.5847" stroke="#191713" stroke-width="3" stroke-miterlimit="10"/>
<path d="M87.3958 171.896L94.8431 147.331C94.8431 147.331 114.771 135.995 126 121.258C137.229 106.522 146.733 95.9653 150.055 90.8019C152.609 86.9677 139.592 84.1942 131.698 94.6361C130.688 95.9781 118.08 106.842 115.551 107.89C113.021 108.938 109.713 106.509 108.55 104.324C107.388 102.138 102.048 83.6447 98.0495 69.0874C94.0511 54.5301 87.6638 31.333 87.6638 31.333C87.6638 31.333 85.8115 26.3229 82.1197 27.1281C79.5648 27.6777 77.6869 29.4159 78.2873 32.2404" stroke="#191713" stroke-width="3" stroke-miterlimit="10"/>
</g>
<defs>
<clipPath id="clip0_3665_17796">
<rect width="146" height="169" fill="white" transform="translate(5 23)"/>
</clipPath>
</defs>
</svg>
