<svg width="15" height="20" viewBox="0 0 15 20" fill="none" xmlns="http://www.w3.org/2000/svg">
<path d="M10.0046 20C8.60421 19.9989 7.21964 19.7043 5.94021 19.135C4.66077 18.5658 3.51491 17.7346 2.57656 16.6951C1.63113 15.6545 0.917816 14.4246 0.483944 13.0872C0.0500716 11.7499 -0.0944363 10.3355 0.0600078 8.93799C0.308999 6.7631 1.25779 4.72795 2.76352 3.13896C4.26926 1.54996 6.25044 0.493119 8.4088 0.127547C9.80409 -0.0879642 11.228 -0.0299444 12.6011 0.298373C12.9607 0.390751 13.289 0.57753 13.5522 0.839383C13.8153 1.10124 14.0037 1.42865 14.0978 1.78774C14.192 2.14684 14.1885 2.52457 14.0877 2.88185C13.9868 3.23913 13.7924 3.56297 13.5244 3.81988C9.72458 7.29139 10.0546 12.6895 14.1969 15.8277C14.4898 16.0576 14.7157 16.3617 14.8511 16.7085C14.9866 17.0554 15.0266 17.4321 14.9671 17.7997C14.9075 18.1672 14.7506 18.512 14.5125 18.7983C14.2745 19.0846 13.9641 19.3019 13.6136 19.4275C12.4485 19.8082 11.2303 20.0014 10.0046 20ZM10.0679 1.66748C9.60004 1.66635 9.13281 1.70174 8.67046 1.77331C6.87347 2.07722 5.22383 2.95662 3.96984 4.27914C2.71586 5.60165 1.92539 7.29571 1.71743 9.10631C1.58744 10.273 1.70724 11.4539 2.06887 12.5707C2.4305 13.6875 3.02567 14.7145 3.81484 15.5835C4.97007 16.8165 6.45829 17.6878 8.09896 18.0916C9.73963 18.4954 11.4622 18.4144 13.0578 17.8584C13.1265 17.8327 13.1873 17.7892 13.2338 17.7324C13.2804 17.6756 13.3111 17.6075 13.3229 17.535C13.3346 17.4625 13.327 17.3881 13.3008 17.3195C13.2746 17.2509 13.2307 17.1905 13.1736 17.1443C8.23298 13.4128 7.84049 6.73975 12.3836 2.6041C12.4358 2.5557 12.4734 2.49372 12.4922 2.42512C12.511 2.35652 12.5104 2.28403 12.4903 2.21579C12.473 2.14336 12.4362 2.07705 12.3839 2.02403C12.3316 1.971 12.2658 1.93329 12.1936 1.91497C11.4976 1.74708 10.7839 1.66398 10.0679 1.66748Z" fill="#191713"/>
</svg>
