<svg width="18" height="23" viewBox="0 0 18 23" fill="none" xmlns="http://www.w3.org/2000/svg">
<path d="M11.2212 11.0127H18.0001L14.3446 19.9664C13.8356 21.2158 12.6325 22.0255 11.2906 22.0255H4.51172L8.16725 13.0718C8.67624 11.7993 9.87933 11.0127 11.2212 11.0127Z" fill="white"/>
<path d="M18.0001 11.0127L13.8818 16.2415C13.2572 17.0744 12.3086 17.6065 11.198 17.6065H6.27002L8.14405 13.0487C8.65305 11.8225 9.85613 11.0127 11.198 11.0127H18.0001Z" fill="#191713"/>
<path d="M8.95365 5.50684H15.7326L12.077 14.4606C11.568 15.7099 10.365 16.5197 9.02306 16.5197H2.24414L5.89967 7.56596C6.40866 6.3166 7.63488 5.50684 8.95365 5.50684Z" fill="white"/>
<path d="M15.7555 5.50684L11.6372 10.7356C11.0125 11.5685 10.0639 12.1007 8.95341 12.1007H4.02539L5.89943 7.54283C6.40842 6.31661 7.61151 5.50684 8.95341 5.50684H15.7555Z" fill="#191713"/>
<path d="M6.70951 0H13.4884L9.8329 8.95372C9.3239 10.2031 8.12082 11.0129 6.77892 11.0129H0L3.65553 2.05912C4.16452 0.809767 5.36761 0 6.70951 0Z" fill="white"/>
</svg>
